<svg width="45" height="46" viewBox="0 0 45 46" fill="none" xmlns="http://www.w3.org/2000/svg">
<rect y="0.5" width="45" height="45" rx="22.5" fill="#F16529"/>
<g clip-path="url(#clip0_8_4245)">
<path d="M16.9444 31.3334C15.8333 31.3334 14.7222 30.3611 14.1667 29.9445C11.3889 28 10.5556 27.3056 10 26.8889V32.7222C10 33.4892 10.622 34.1111 11.3889 34.1111H22.5C23.2669 34.1111 23.8889 33.4892 23.8889 32.7222V26.8889C23.3333 27.3056 22.5 28 19.7222 29.9445C19.1667 30.3611 18.0556 31.3334 16.9444 31.3334ZM22.5 23H11.3889C10.622 23 10 23.622 10 24.3889V25.0834C11.1111 25.9167 10.9722 25.9167 15 28.8334C15.4167 29.1111 16.25 29.9445 16.9444 29.9445C17.6389 29.9445 18.4722 29.1111 18.8889 28.9722C22.9167 26.0556 22.7778 26.0556 23.8889 25.2222V24.3889C23.8889 23.622 23.2669 23 22.5 23ZM33.6111 18.8334H19.7222C18.9553 18.8334 18.3333 19.4553 18.3333 20.2222V21.6111H22.5C23.9414 21.6111 25.1298 22.7144 25.2652 24.1207L25.2778 24.1111V29.9445H33.6111C34.378 29.9445 35 29.3225 35 28.5556V20.2222C35 19.4553 34.378 18.8334 33.6111 18.8334ZM32.2222 24.3889H29.4444V21.6111H32.2222V24.3889ZM16.9444 20.2222C16.9444 18.6906 18.1905 17.4445 19.7222 17.4445H29.4444V13.2778C29.4444 12.5109 28.8225 11.8889 28.0556 11.8889H14.1667C13.3997 11.8889 12.7778 12.5109 12.7778 13.2778V21.6111H16.9444V20.2222Z" fill="white"/>
</g>
<defs>
<clipPath id="clip0_8_4245">
<rect width="25" height="25" fill="white" transform="translate(10 10.5)"/>
</clipPath>
</defs>
</svg>
