<svg width="730" height="656" viewBox="0 0 730 656" fill="none" xmlns="http://www.w3.org/2000/svg">
<path d="M507.227 649.438L621.024 649.438C643.308 649.438 661.373 631.262 661.373 608.839" stroke="#4484AB" stroke-width="10" stroke-linecap="round" stroke-linejoin="round"/>
<path d="M725 439.736V516.705C725 531.778 712.872 543.996 697.916 543.996C682.959 543.996 670.831 531.778 670.831 516.705V504.792" stroke="white" stroke-width="10" stroke-linecap="round" stroke-linejoin="round"/>
<path d="M220.246 90.9986C223.147 90.9986 225.497 93.3802 225.497 96.3172C225.497 99.2552 223.147 101.636 220.246 101.636V90.9986ZM165.632 211.065C167.052 213.627 166.153 216.869 163.625 218.307C161.097 219.745 157.896 218.835 156.477 216.273L165.632 211.065ZM267.721 245.56C270.621 245.56 272.971 247.942 272.971 250.879C272.971 253.817 270.621 256.197 267.721 256.197V245.56ZM176.631 240.764C174.344 238.958 173.934 235.616 175.716 233.299C177.498 230.982 180.796 230.567 183.084 232.372L176.631 240.764ZM220.246 101.636C185.235 101.636 156.057 133.284 156.057 173.364H145.556C145.556 128.341 178.556 90.9986 220.246 90.9986V101.636ZM156.057 173.364C156.057 187.224 159.571 200.131 165.632 211.065L156.477 216.273C149.537 203.756 145.556 189.055 145.556 173.364H156.057ZM267.721 256.197H220.414V245.56H267.721V256.197ZM220.414 256.197C204.034 256.197 188.906 250.45 176.631 240.764L183.084 232.372C193.634 240.698 206.52 245.56 220.414 245.56V256.197Z" fill="#1DC9FF"/>
<path d="M494.555 393.743C508.891 393.743 520.512 382.031 520.512 367.582C520.512 353.133 508.891 341.421 494.555 341.421C480.219 341.421 468.599 353.133 468.599 367.582V465.344" stroke="white" stroke-width="10" stroke-linecap="round" stroke-linejoin="round"/>
<path d="M30.9561 390.94C16.6209 390.94 5 379.344 5 365.038C5 350.731 16.6209 339.134 30.9561 339.134C45.2913 339.134 56.9123 350.731 56.9123 365.038V470.831" stroke="#4484AB" stroke-width="10" stroke-linecap="round" stroke-linejoin="round"/>
<path fill-rule="evenodd" clip-rule="evenodd" d="M502.455 570.747C502.455 595.118 521.747 614.875 545.547 614.875H589.819C613.621 614.875 632.912 595.118 632.912 570.747C632.912 546.376 613.621 526.62 589.819 526.62H545.547C521.747 526.62 502.455 546.376 502.455 570.747Z" stroke="#FFC107" stroke-width="10" stroke-linecap="round" stroke-linejoin="round"/>
<path d="M683.019 364.742H645.098C617.675 364.742 595.446 342.016 595.446 313.984" stroke="#4484AB" stroke-width="10" stroke-linecap="round" stroke-linejoin="round"/>
<path d="M725 194.176C725 179.528 713.38 167.654 699.045 167.654C684.709 167.654 673.088 179.528 673.088 194.176" stroke="#34C69F" stroke-width="10" stroke-linecap="round" stroke-linejoin="round"/>
<path d="M256.436 619.491C256.436 604.314 268.562 592.011 283.52 592.011C298.479 592.011 310.605 604.314 310.605 619.491V650.543" stroke="#34C69F" stroke-width="10" stroke-linecap="round" stroke-linejoin="round"/>
<path fill-rule="evenodd" clip-rule="evenodd" d="M268.173 452.997C278.145 452.997 286.23 461.187 286.23 471.289C286.23 481.39 278.145 489.58 268.173 489.58C258.2 489.58 250.117 481.39 250.117 471.289C250.117 461.187 258.2 452.997 268.173 452.997Z" stroke="#34C69F" stroke-width="10" stroke-linecap="round" stroke-linejoin="round"/>
<path fill-rule="evenodd" clip-rule="evenodd" d="M85.8028 504.67C101.509 504.67 114.242 517.568 114.242 533.479C114.242 549.39 101.509 562.287 85.8028 562.287C70.0965 562.287 57.364 549.39 57.364 533.479C57.364 517.568 70.0965 504.67 85.8028 504.67Z" stroke="#34C69F" stroke-width="10" stroke-linecap="round" stroke-linejoin="round"/>
<path d="M151.032 461.686C136.697 461.686 125.075 449.913 125.075 435.391C125.075 420.87 136.697 409.098 151.032 409.098C165.367 409.098 176.988 420.87 176.988 435.391V461.686" stroke="#34C69F" stroke-width="10" stroke-linecap="round" stroke-linejoin="round"/>
<path d="M662.7 253.166C662.7 237.76 674.831 225.272 689.79 225.272C704.75 225.272 716.875 237.76 716.875 253.166C716.875 268.57 704.75 281.06 689.79 281.06H599.057" stroke="#34C69F" stroke-width="10" stroke-linecap="round" stroke-linejoin="round"/>
<path d="M415.747 31.8404C415.747 46.489 427.377 58.3634 441.722 58.3634C456.067 58.3634 467.696 46.489 467.696 31.8404C467.696 17.1929 456.067 5.31858 441.722 5.31858H400.436" stroke="#34C69F" stroke-width="10" stroke-linecap="round" stroke-linejoin="round"/>
<path d="M679.246 318.556C704.519 318.556 725 339.644 725 365.657C725 391.669 704.519 412.756 679.246 412.756H559.333" stroke="#34C69F" stroke-width="10" stroke-linecap="round" stroke-linejoin="round"/>
<path d="M341.752 349.194V243.271C341.752 211.61 367.318 185.945 398.856 185.945C430.394 185.945 455.96 211.61 455.96 243.271V268.297" stroke="#34C69F" stroke-width="10" stroke-linecap="round" stroke-linejoin="round"/>
<path d="M227.094 169.94H320.899C356.599 169.94 385.54 140.459 385.54 104.092C385.54 67.7264 356.599 38.2431 320.899 38.2431H292.679" stroke="#34C69F" stroke-width="10" stroke-linecap="round" stroke-linejoin="round"/>
<path d="M494.555 435.164H519.916C536.947 435.164 550.756 448.369 550.756 464.658C550.756 480.947 536.947 494.153 519.916 494.153H469.195C452.162 494.153 438.354 480.947 438.354 464.658" stroke="#34C69F" stroke-width="10" stroke-linecap="round" stroke-linejoin="round"/>
<path d="M307.445 558.172H246.648C208.176 558.172 176.988 526.439 176.988 487.294" stroke="#34C69F" stroke-width="10" stroke-linecap="round" stroke-linejoin="round"/>
<path d="M462.73 82.142C462.73 108.912 483.878 130.614 509.964 130.614H593.189" stroke="#34C69F" stroke-width="10" stroke-linecap="round" stroke-linejoin="round"/>
<path d="M22.8308 501.926C22.8308 497.667 22.8308 444.059 22.8308 417.787" stroke="#34C69F" stroke-width="10" stroke-linecap="round" stroke-linejoin="round"/>
<path d="M494.103 308.496C494.103 304.979 494.103 260.693 494.103 238.989" stroke="#34C69F" stroke-width="10" stroke-linecap="round" stroke-linejoin="round"/>
<path d="M424.587 119.639C424.587 118.204 424.587 100.142 424.587 91.2878" stroke="#34C69F" stroke-width="10" stroke-linecap="round" stroke-linejoin="round"/>
<path d="M86.0283 470.831C121.056 470.831 149.452 499.186 149.452 534.165C149.452 569.143 121.056 597.498 86.0283 597.498C51.0008 597.498 22.605 569.143 22.605 534.165" stroke="#FFC107" stroke-width="10" stroke-linecap="round" stroke-linejoin="round"/>
<path d="M313.631 470.832C313.631 496.844 293.147 517.931 267.88 517.931C242.612 517.931 222.128 496.844 222.128 470.832C222.128 444.819 242.612 423.731 267.88 423.731H387.796" stroke="#FFC107" stroke-width="10" stroke-linecap="round" stroke-linejoin="round"/>
<path fill-rule="evenodd" clip-rule="evenodd" d="M123.044 252.708C108.21 252.708 96.1848 264.869 96.1848 279.87V357.243C96.1848 372.243 108.21 384.405 123.044 384.405C137.878 384.405 149.902 372.243 149.902 357.243V279.87C149.902 264.869 137.878 252.708 123.044 252.708Z" stroke="#FFC107" stroke-width="10" stroke-linecap="round" stroke-linejoin="round"/>
<path d="M415.332 505.616V502.055C415.332 481.78 399.063 465.344 378.994 465.344C358.925 465.344 342.655 481.78 342.655 502.055V613.832C342.655 634.107 358.925 650.543 378.994 650.543C399.063 650.543 415.332 634.107 415.332 613.832V612.736" stroke="#FFC107" stroke-width="10" stroke-linecap="round" stroke-linejoin="round"/>
<path d="M35.1316 215.668H32.96C17.5182 215.668 5 202.975 5 187.317C5 171.659 17.5181 158.965 32.96 158.965H97.5667C113.009 158.965 125.527 171.659 125.527 187.317C125.527 202.975 113.009 215.668 97.5667 215.668H95.395" stroke="#FFC107" stroke-width="10" stroke-linecap="round" stroke-linejoin="round"/>
<path d="M564.583 382.576C564.583 385.513 562.232 387.895 559.333 387.895C556.432 387.895 554.082 385.513 554.082 382.576H564.583ZM507.681 217.737C504.782 217.737 502.431 215.357 502.431 212.419C502.431 209.482 504.782 207.1 507.681 207.1V217.737ZM433.388 156.968C430.489 156.968 428.138 154.586 428.138 151.649C428.138 148.711 430.489 146.33 433.388 146.33V156.968ZM495.951 197.405C495.951 200.342 493.6 202.724 490.7 202.724C487.801 202.724 485.45 200.342 485.45 197.405H495.951ZM554.082 382.576V317.49H564.583V382.576H554.082ZM554.082 317.49C554.082 310.228 548.215 304.273 540.885 304.273V293.636C553.932 293.636 564.583 304.271 564.583 317.49H554.082ZM540.885 304.273C527.836 304.273 517.188 293.629 517.188 280.411H527.689C527.689 287.677 533.559 293.636 540.885 293.636V304.273ZM517.188 280.411V276.565H527.689V280.411H517.188ZM517.188 276.565C517.188 263.349 527.836 252.703 540.885 252.703V263.34C533.559 263.34 527.689 269.3 527.689 276.565H517.188ZM540.885 252.703C548.212 252.703 554.082 246.744 554.082 239.479H564.583C564.583 252.695 553.935 263.34 540.885 263.34V252.703ZM554.082 239.479V235.221H564.583V239.479H554.082ZM554.082 235.221C554.082 225.603 546.315 217.737 536.649 217.737V207.1C552.039 207.1 564.583 219.652 564.583 235.221H554.082ZM536.649 217.737H524.898V207.1H536.649V217.737ZM524.898 217.737H507.681V207.1H524.898V217.737ZM433.388 146.33H445.476V156.968H433.388V146.33ZM445.476 146.33C473.347 146.33 495.951 169.191 495.951 197.405H485.45C485.45 175.078 467.559 156.968 445.476 156.968V146.33Z" fill="#FFC107"/>
<path d="M725 580.121C707.048 580.121 692.498 594.965 692.498 613.274C692.498 631.584 707.048 646.427 725 646.427" stroke="#F44336" stroke-width="10" stroke-linecap="round" stroke-linejoin="round"/>
<path d="M306.542 204.16C309.442 204.16 311.792 206.54 311.792 209.478C311.792 212.415 309.442 214.797 306.542 214.797V204.16ZM258.974 129.66C261.873 129.66 264.224 132.04 264.224 134.978C264.224 137.915 261.873 140.297 258.974 140.297V129.66ZM168.338 3.05176e-05C171.239 3.05176e-05 173.589 2.38171 173.589 5.31866C173.589 8.25558 171.239 10.6373 168.338 10.6373V3.05176e-05ZM264.465 96.2949C264.465 99.2328 262.114 101.613 259.214 101.613C256.314 101.613 253.964 99.2328 253.964 96.2949H264.465ZM183.936 382.119C183.936 385.056 181.585 387.438 178.686 387.438C175.785 387.438 173.435 385.056 173.435 382.119H183.936ZM301.292 248.878C301.292 245.94 303.643 243.559 306.542 243.559C309.442 243.559 311.792 245.94 311.792 248.878H301.292ZM306.542 214.797H225.543V204.16H306.542V214.797ZM225.543 214.797C202.252 214.797 183.325 195.765 183.325 172.228H193.826C193.826 189.837 207.999 204.16 225.543 204.16V214.797ZM183.325 172.228C183.325 148.692 202.252 129.66 225.543 129.66V140.297C207.999 140.297 193.826 154.62 193.826 172.228H183.325ZM225.543 129.66H258.974V140.297H225.543V129.66ZM168.338 10.6373H163.51V3.05176e-05H168.338V10.6373ZM163.51 10.6373C152.169 10.6373 142.965 19.9651 142.965 31.4767H132.465C132.465 14.1018 146.358 3.05176e-05 163.51 3.05176e-05V10.6373ZM142.965 31.4767C142.965 42.9948 152.17 52.3225 163.51 52.3225V62.9598C146.358 62.9598 132.465 48.8569 132.465 31.4767H142.965ZM163.51 52.3225H221.101V62.9598H163.51V52.3225ZM221.101 52.3225C245.055 52.3225 264.465 72.0143 264.465 96.2949H253.964C253.964 77.8775 239.245 62.9598 221.101 62.9598V52.3225ZM173.435 382.119V352.722H183.936V382.119H173.435ZM173.435 352.722C173.435 313.983 204.402 282.57 242.614 282.57V293.207C210.212 293.207 183.936 319.846 183.936 352.722H173.435ZM242.614 282.57H268.076V293.207H242.614V282.57ZM268.076 282.57C286.415 282.57 301.292 267.491 301.292 248.878H311.792C311.792 273.354 292.225 293.207 268.076 293.207V282.57Z" fill="#F44336"/>
<path fill-rule="evenodd" clip-rule="evenodd" d="M317.827 78.0264C332.288 78.0264 344.01 89.7986 344.01 104.321C344.01 118.842 332.288 130.614 317.827 130.614C303.368 130.614 291.646 118.842 291.646 104.321C291.646 89.7986 303.368 78.0264 317.827 78.0264Z" stroke="#F44336" stroke-width="10" stroke-linecap="round" stroke-linejoin="round"/>
<path d="M158.931 615.561C158.931 596.241 174.291 580.579 193.239 580.579C212.186 580.579 227.545 596.241 227.545 615.561C227.545 634.881 212.186 650.543 193.239 650.543H158.931" stroke="#F44336" stroke-width="10" stroke-linecap="round" stroke-linejoin="round"/>
<path d="M376.51 287.232V328.084C376.51 339.742 385.909 349.194 397.501 349.194C409.094 349.194 418.492 339.742 418.492 328.084V246.382C418.492 234.723 409.094 225.272 397.501 225.272C385.909 225.272 376.51 234.723 376.51 246.382V256.251" stroke="#F44336" stroke-width="10" stroke-linecap="round" stroke-linejoin="round"/>
<path d="M671.282 472.696V463.422C671.282 450.34 660.781 439.736 647.834 439.736C634.883 439.736 624.381 450.34 624.381 463.422V471.104C624.381 484.087 613.961 494.61 601.114 494.61C588.26 494.61 577.84 484.087 577.84 471.104V461.649" stroke="#F44336" stroke-width="10" stroke-linecap="round" stroke-linejoin="round"/>
<path d="M438.806 587.076C422.85 587.076 409.915 574.157 409.915 558.22C409.915 542.283 422.85 529.363 438.806 529.363C454.76 529.363 467.695 542.283 467.695 558.22V651" stroke="#1DC9FF" stroke-width="10" stroke-linecap="round" stroke-linejoin="round"/>
<path d="M267.27 330.445H245.066C230.154 330.445 218.065 342.73 218.065 357.883C218.065 373.036 230.154 385.32 245.066 385.32H289.473C304.385 385.32 316.474 373.036 316.474 357.883V355.445C316.474 341.639 305.458 330.445 291.872 330.445" stroke="#1DC9FF" stroke-width="10" stroke-linecap="round" stroke-linejoin="round"/>
<path d="M339.947 385.32H384.353C414.177 385.32 438.354 409.887 438.354 440.193" stroke="#1DC9FF" stroke-width="10" stroke-linecap="round" stroke-linejoin="round"/>
<path d="M599.057 242.19V217.609C599.057 192.798 579.194 172.684 554.688 172.684H520.059" stroke="#1DC9FF" stroke-width="10" stroke-linecap="round" stroke-linejoin="round"/>
<path fill-rule="evenodd" clip-rule="evenodd" d="M494.329 62.9513C494.329 81.3772 509.083 96.3172 527.282 96.3172C545.48 96.3172 560.236 81.3772 560.236 62.9513V38.6845C560.236 20.2587 545.48 5.31865 527.282 5.31865C509.083 5.31865 494.329 20.2587 494.329 38.6845V62.9513Z" stroke="#1DC9FF" stroke-width="10" stroke-linecap="round" stroke-linejoin="round"/>
</svg>
