<svg width="45" height="46" viewBox="0 0 45 46" fill="none" xmlns="http://www.w3.org/2000/svg">
<rect y="0.5" width="45" height="45" rx="22.5" fill="#00759D"/>
<g clip-path="url(#clip0_8_4199)">
<path d="M16.459 32.375H11.9238V17.7705H16.459V32.375ZM14.189 15.7783C12.7388 15.7783 11.5625 14.5771 11.5625 13.127C11.5625 12.4304 11.8392 11.7623 12.3318 11.2698C12.8243 10.7772 13.4924 10.5005 14.189 10.5005C14.8855 10.5005 15.5536 10.7772 16.0462 11.2698C16.5387 11.7623 16.8154 12.4304 16.8154 13.127C16.8154 14.5771 15.6387 15.7783 14.189 15.7783ZM33.4326 32.375H28.9072V25.2656C28.9072 23.5713 28.873 21.3984 26.5493 21.3984C24.1914 21.3984 23.8301 23.2393 23.8301 25.1436V32.375H19.2998V17.7705H23.6494V19.7627H23.7129C24.3184 18.6152 25.7974 17.4043 28.0039 17.4043C32.5938 17.4043 33.4375 20.4268 33.4375 24.3525V32.375H33.4326Z" fill="white"/>
</g>
<defs>
<clipPath id="clip0_8_4199">
<rect width="25" height="25" fill="white" transform="translate(10 10.5)"/>
</clipPath>
</defs>
</svg>
