<svg width="158" height="158" viewBox="0 0 158 158" fill="none" xmlns="http://www.w3.org/2000/svg">
<g filter="url(#filter0_d_8_6)">
<rect x="4" width="150" height="150" rx="30" fill="white"/>
<path d="M133.603 69.6962C133.287 69.6962 132.979 69.7614 132.708 69.9153L124.103 74.8842C123.546 75.2052 123.208 75.811 123.208 76.4557V86.3755C123.208 87.0197 123.546 87.6247 124.103 87.9464L126.35 89.2436C127.442 89.7817 127.844 89.7733 128.341 89.7733C129.958 89.7733 130.881 88.7925 130.881 87.088V77.2958C130.881 77.1575 130.761 77.0584 130.625 77.0584H129.547C129.409 77.0584 129.291 77.1575 129.291 77.2958V87.088C129.291 87.8434 128.504 88.6033 127.227 87.9647L124.889 86.5946C124.806 86.5497 124.742 86.4702 124.742 86.3755V76.4554C124.742 76.3615 124.805 76.2657 124.889 76.218L133.475 71.2676C133.514 71.2449 133.558 71.233 133.603 71.233C133.648 71.233 133.692 71.2449 133.731 71.2676L142.317 76.2183C142.399 76.2675 142.463 76.3587 142.463 76.4559V86.3758C142.463 86.4705 142.415 86.5675 142.335 86.6132L133.731 91.5638C133.657 91.6078 133.555 91.6078 133.475 91.5638L131.264 90.2486C131.231 90.2304 131.193 90.2208 131.155 90.2208C131.116 90.2208 131.079 90.2304 131.045 90.2486C130.435 90.5944 130.32 90.6345 129.748 90.8331C129.607 90.8824 129.393 90.9588 129.821 91.1987L132.708 92.8974C132.98 93.0544 133.289 93.1364 133.603 93.135C133.917 93.137 134.226 93.055 134.498 92.8976L143.102 87.9467C143.659 87.623 143.997 87.0199 143.997 86.3758V76.4557C143.997 75.8112 143.659 75.2064 143.102 74.8847L134.498 69.9158C134.228 69.7617 133.919 69.6964 133.603 69.6964L133.603 69.6962Z" fill="#83CD29"/>
<path d="M135.904 76.7845C133.454 76.7845 131.995 77.8273 131.995 79.5615C131.995 81.4424 133.443 81.9593 135.795 82.1919C138.608 82.4674 138.827 82.8805 138.827 83.4343C138.827 84.3948 138.062 84.8044 136.252 84.8044C133.978 84.8044 133.478 84.2366 133.311 83.1055C133.291 82.9841 133.197 82.8861 133.073 82.8861H131.959C131.821 82.8861 131.703 83.0044 131.703 83.142C131.703 84.5901 132.49 86.3024 136.252 86.3024C138.974 86.3024 140.545 85.2337 140.545 83.3612C140.545 81.5051 139.276 81.0067 136.635 80.6576C133.967 80.3044 133.712 80.1315 133.712 79.5066C133.712 78.9907 133.928 78.3006 135.904 78.3006C137.67 78.3006 138.323 78.6814 138.59 79.872C138.613 79.9837 138.712 80.0728 138.827 80.0728H139.942C140.011 80.0728 140.077 80.0307 140.125 79.9814C140.171 79.9289 140.204 79.8697 140.198 79.7989C140.025 77.7488 138.658 76.7845 135.904 76.7845Z" fill="#83CD29"/>
<path d="M83.0171 56.689C82.9209 56.6891 82.8264 56.7142 82.7428 56.7619C82.6598 56.8105 82.5909 56.8798 82.5429 56.9631C82.4948 57.0464 82.4693 57.1408 82.4689 57.237V71.2125C82.4689 71.3496 82.4051 71.4725 82.2863 71.5413C82.2281 71.5752 82.1619 71.5931 82.0945 71.5931C82.0271 71.5931 81.9609 71.5752 81.9027 71.5413L79.619 70.226C79.4525 70.1297 79.2634 70.0789 79.071 70.0789C78.8785 70.0789 78.6895 70.1297 78.5229 70.226L69.4069 75.4872C69.0662 75.684 68.859 76.0621 68.859 76.4556V86.9783C68.859 87.3713 69.0664 87.7313 69.4069 87.9281L78.5229 93.1896C78.6894 93.2862 78.8785 93.3371 79.071 93.3371C79.2635 93.3371 79.4525 93.2862 79.619 93.1896L88.735 87.9281C88.9019 87.8321 89.0405 87.6936 89.1368 87.5269C89.233 87.3601 89.2835 87.1708 89.2832 86.9783V60.7447C89.283 60.5476 89.2304 60.3541 89.1309 60.184C89.0315 60.0138 88.8886 59.8731 88.717 59.7763L83.291 56.7436C83.206 56.6961 83.1115 56.6878 83.0171 56.689ZM24.3749 69.8241C24.2012 69.831 24.0377 69.8614 23.8818 69.9518L14.7655 75.2133C14.5985 75.3092 14.4599 75.4476 14.3637 75.6144C14.2674 75.7812 14.217 75.9705 14.2176 76.1631L14.2359 90.2851C14.2359 90.4814 14.3372 90.664 14.5098 90.7599C14.5926 90.8097 14.6874 90.8359 14.7839 90.8359C14.8805 90.8359 14.9752 90.8097 15.058 90.7599L20.4655 87.6544C20.808 87.4508 21.0317 87.0968 21.0317 86.7043V80.1093C21.0317 79.7158 21.2386 79.3547 21.5799 79.1592L23.8815 77.8257C24.0479 77.7289 24.2372 77.6784 24.4297 77.6794C24.6176 77.6794 24.8106 77.7264 24.9776 77.8257L27.2795 79.1592C27.4467 79.2551 27.5855 79.3935 27.6818 79.5604C27.778 79.7272 27.8284 79.9167 27.8277 80.1093V86.704C27.8277 87.0966 28.0537 87.4531 28.3939 87.6542L33.8014 90.7599C33.8842 90.8097 33.9789 90.8359 34.0755 90.8359C34.172 90.8359 34.2668 90.8097 34.3496 90.7599C34.4329 90.7117 34.5021 90.6424 34.5502 90.5591C34.5983 90.4757 34.6237 90.3811 34.6238 90.2849L34.6416 76.1631C34.6426 75.9704 34.5925 75.7809 34.4962 75.614C34.3999 75.4471 34.261 75.3088 34.0936 75.2133L24.9776 69.9518C24.8235 69.8614 24.6595 69.8312 24.4845 69.8241H24.3749ZM106.291 69.9518C106.101 69.9518 105.914 70.0001 105.743 70.0981L96.6272 75.3595C96.4603 75.4555 96.3216 75.5939 96.2254 75.7607C96.1291 75.9275 96.0786 76.1168 96.079 76.3094V86.832C96.079 87.2278 96.3019 87.5864 96.6452 87.7821L105.688 92.9339C106.022 93.1243 106.43 93.1388 106.766 92.9517L112.247 89.901C112.421 89.8045 112.538 89.6242 112.539 89.4262C112.54 89.3297 112.515 89.2348 112.467 89.1513C112.419 89.0677 112.349 88.9986 112.265 88.9511L103.094 83.6897C102.923 83.5917 102.802 83.3934 102.802 83.1963V79.9082C102.802 79.7115 102.924 79.5312 103.094 79.4332L105.944 77.7889C106.027 77.7407 106.122 77.7153 106.218 77.7153C106.314 77.7153 106.409 77.7407 106.492 77.7889L109.342 79.4332C109.425 79.4811 109.495 79.5503 109.543 79.6337C109.591 79.7171 109.616 79.8117 109.616 79.908V82.5021C109.616 82.5984 109.641 82.693 109.689 82.7764C109.737 82.8598 109.807 82.929 109.89 82.9769C110.061 83.0757 110.268 83.076 110.438 82.9769L115.9 79.7988C116.067 79.7024 116.205 79.5639 116.302 79.3971C116.398 79.2303 116.449 79.0412 116.449 78.8487V76.3096C116.449 75.9173 116.24 75.5565 115.9 75.3595L106.839 70.0981C106.673 70.0017 106.484 69.9511 106.291 69.9518ZM79.0343 77.8074C79.082 77.8074 79.1379 77.8191 79.1805 77.8437L82.3046 79.6523C82.3894 79.7013 82.4508 79.7919 82.4508 79.8897V83.5068C82.4508 83.6051 82.3899 83.6955 82.3046 83.7445L79.1805 85.5531C79.1388 85.5769 79.0916 85.5894 79.0436 85.5894C78.9955 85.5894 78.9483 85.5769 78.9066 85.5531L75.7828 83.7445C75.6977 83.6952 75.6365 83.6051 75.6365 83.5068V79.8897C75.6365 79.7917 75.698 79.7018 75.7828 79.6523L78.9066 77.844C78.945 77.8201 78.9893 77.8075 79.0345 77.8077L79.0343 77.8074Z" fill="#404137"/>
<path d="M51.7594 69.897C51.5695 69.897 51.3816 69.9452 51.2115 70.0432L42.0955 75.2864C41.7545 75.4827 41.5473 75.8615 41.5473 76.2545V86.7772C41.5473 87.1707 41.7547 87.5303 42.0955 87.7273L51.2115 92.9885C51.3779 93.0852 51.567 93.1361 51.7595 93.1361C51.952 93.1361 52.1411 93.0852 52.3076 92.9885L61.4236 87.7273C61.5905 87.6312 61.729 87.4927 61.8252 87.3259C61.9215 87.159 61.9719 86.9698 61.9715 86.7772V76.2545C61.9715 75.861 61.7643 75.4827 61.4236 75.2864L52.3076 70.0432C52.141 69.947 51.9518 69.8965 51.7594 69.897ZM106.273 79.2872C106.237 79.2872 106.196 79.2872 106.163 79.3055L104.41 80.3285C104.377 80.3466 104.35 80.3731 104.33 80.4052C104.311 80.4373 104.301 80.4739 104.3 80.5113V82.5207C104.3 82.5964 104.344 82.6657 104.41 82.7035L106.163 83.7082C106.229 83.7463 106.299 83.7463 106.364 83.7082L108.118 82.7032C108.151 82.685 108.178 82.6585 108.197 82.6265C108.216 82.5945 108.227 82.558 108.228 82.5207V80.511C108.227 80.4737 108.216 80.4372 108.197 80.4052C108.178 80.3732 108.151 80.3467 108.118 80.3285L106.364 79.3052C106.332 79.2862 106.309 79.2872 106.273 79.2872Z" fill="#83CD29"/>
</g>
<defs>
<filter id="filter0_d_8_6" x="0" y="0" width="158" height="158" filterUnits="userSpaceOnUse" color-interpolation-filters="sRGB">
<feFlood flood-opacity="0" result="BackgroundImageFix"/>
<feColorMatrix in="SourceAlpha" type="matrix" values="0 0 0 0 0 0 0 0 0 0 0 0 0 0 0 0 0 0 127 0" result="hardAlpha"/>
<feOffset dy="4"/>
<feGaussianBlur stdDeviation="2"/>
<feComposite in2="hardAlpha" operator="out"/>
<feColorMatrix type="matrix" values="0 0 0 0 0 0 0 0 0 0 0 0 0 0 0 0 0 0 0.25 0"/>
<feBlend mode="normal" in2="BackgroundImageFix" result="effect1_dropShadow_8_6"/>
<feBlend mode="normal" in="SourceGraphic" in2="effect1_dropShadow_8_6" result="shape"/>
</filter>
</defs>
</svg>
