<svg width="158" height="158" viewBox="0 0 158 158" fill="none" xmlns="http://www.w3.org/2000/svg">
<g filter="url(#filter0_d_8_2)">
<rect x="4" width="150" height="150" rx="30" fill="white"/>
<path d="M120.886 54.5979C119.538 54.1338 118.14 53.6946 116.701 53.2792C116.938 52.314 117.155 51.3614 117.348 50.4249C120.516 35.0478 118.444 22.6599 111.372 18.5813C104.59 14.6704 93.4987 18.7481 82.2972 28.4965C81.22 29.4338 80.1399 30.4263 79.0602 31.4664C78.3408 30.7783 77.6225 30.1132 76.9061 29.4771C65.1665 19.0536 53.3995 14.6609 46.3337 18.7513C39.5584 22.6735 37.5519 34.3194 40.4035 48.8924C40.6788 50.2999 41.0007 51.7374 41.3647 53.1989C39.6993 53.6717 38.0916 54.1756 36.5532 54.7118C22.7899 59.5103 14 67.0307 14 74.8314C14 82.888 23.436 90.9689 37.7715 95.8687C38.9028 96.2554 40.0767 96.621 41.2865 96.9681C40.8938 98.5488 40.5523 100.098 40.2656 101.609C37.5466 115.929 39.6699 127.299 46.4272 131.197C53.4069 135.222 65.1207 131.085 76.5271 121.114C77.4286 120.326 78.3333 119.49 79.2397 118.614C80.4145 119.745 81.5875 120.816 82.7542 121.82C93.8025 131.328 104.715 135.167 111.466 131.259C118.438 127.222 120.704 115.007 117.762 100.146C117.538 99.0109 117.276 97.8514 116.983 96.6712C117.805 96.428 118.613 96.177 119.4 95.916C134.303 90.9781 144 82.9956 144 74.8314C144 67.0025 134.927 59.4314 120.886 54.5979ZM117.654 90.6445C116.943 90.8798 116.213 91.1073 115.47 91.3278C113.825 86.1192 111.604 80.5807 108.887 74.8585C111.48 69.2725 113.615 63.8048 115.214 58.6301C116.544 59.0149 117.835 59.4207 119.078 59.8491C131.108 63.9904 138.446 70.1134 138.446 74.8314C138.446 79.8569 130.522 86.3807 117.654 90.6445ZM112.314 101.224C113.615 107.796 113.801 113.737 112.939 118.382C112.165 122.555 110.608 125.338 108.683 126.452C104.586 128.824 95.8247 125.741 86.3761 117.61C85.2929 116.678 84.2018 115.683 83.1073 114.63C86.7704 110.624 90.4313 105.966 94.0043 100.794C100.289 100.236 106.226 99.3244 111.611 98.0798C111.876 99.1495 112.111 100.199 112.314 101.224ZM58.3199 126.043C54.3172 127.456 51.1292 127.497 49.2022 126.386C45.1015 124.02 43.3968 114.891 45.7222 102.644C45.9885 101.242 46.3055 99.8011 46.6709 98.3285C51.9963 99.5061 57.8902 100.353 64.1898 100.864C67.7869 105.926 71.5536 110.578 75.3495 114.651C74.5201 115.452 73.694 116.214 72.8726 116.932C67.8288 121.341 62.7744 124.469 58.3199 126.043ZM39.5677 90.6137C33.2287 88.4471 27.9938 85.6312 24.4055 82.5585C21.1812 79.7972 19.5533 77.0558 19.5533 74.8314C19.5533 70.0977 26.6107 64.0598 38.3813 59.956C39.8095 59.458 41.3045 58.9887 42.8561 58.5479C44.4828 63.8395 46.6167 69.372 49.192 74.9665C46.5834 80.6441 44.4192 86.2648 42.7765 91.6184C41.6704 91.3005 40.5988 90.9659 39.5677 90.6137ZM45.8536 47.8258C43.4105 35.3401 45.0331 25.9212 49.1161 23.5577C53.4652 21.0399 63.0823 24.6298 73.2185 33.63C73.8664 34.2053 74.5169 34.8074 75.1692 35.4303C71.3921 39.486 67.6599 44.1033 64.0947 49.1349C57.9807 49.7016 52.1282 50.6119 46.7472 51.8309C46.4089 50.47 46.1093 49.133 45.8536 47.8258ZM101.93 61.6725C100.643 59.4506 99.3228 57.2812 97.9765 55.1711C102.124 55.6955 106.098 56.3915 109.83 57.2433C108.71 60.8341 107.313 64.5886 105.67 68.4374C104.49 66.1986 103.243 63.9413 101.93 61.6725ZM79.062 39.3992C81.6236 42.1744 84.1889 45.2728 86.712 48.6346C84.1694 48.5145 81.5954 48.452 79 48.452C76.4292 48.452 73.8741 48.5131 71.3472 48.6311C73.8729 45.3006 76.4604 42.2063 79.062 39.3992ZM56.0478 61.7109C54.7629 63.939 53.5388 66.1841 52.3781 68.4332C50.7609 64.5978 49.3773 60.8263 48.2472 57.1845C51.9563 56.3545 55.9115 55.6758 60.033 55.1614C58.6677 57.291 57.3363 59.4767 56.0478 61.7109ZM60.1517 94.8976C55.8935 94.4225 51.8787 93.7788 48.1706 92.9716C49.3188 89.2649 50.7328 85.4128 52.3843 81.4948C53.548 83.7423 54.777 85.9883 56.0698 88.2213C57.3867 90.4961 58.7513 92.7245 60.1517 94.8976ZM79.2157 110.655C76.5835 107.815 73.9581 104.674 71.3939 101.295C73.8831 101.392 76.4208 101.442 79 101.442C81.6497 101.442 84.2692 101.382 86.8474 101.268C84.3159 104.708 81.7599 107.854 79.2157 110.655ZM105.723 81.2951C107.46 85.2554 108.925 89.0874 110.088 92.731C106.319 93.5909 102.249 94.2834 97.9612 94.7981C99.3108 92.6595 100.643 90.4529 101.952 88.1831C103.276 85.8867 104.534 83.5868 105.723 81.2951ZM97.1414 85.4086C95.1092 88.9321 93.023 92.2957 90.905 95.4707C87.0473 95.7466 83.062 95.8886 79 95.8886C74.9545 95.8886 71.0193 95.763 67.2299 95.517C65.0266 92.3003 62.8949 88.9268 60.8757 85.4389C58.8619 81.9606 57.0088 78.4528 55.3293 74.9647C57.0084 71.4685 58.857 67.9568 60.8593 64.4847L60.8588 64.4854C62.8665 61.004 64.9794 57.6468 67.1624 54.4503C71.0286 54.1581 74.9931 54.0056 78.9998 54.0056C83.0245 54.0056 86.9943 54.1592 90.8594 54.454C93.0091 57.6272 95.1076 60.9734 97.1231 64.4553C99.1615 67.9762 101.034 71.4646 102.727 74.8858C101.039 78.3658 99.1708 81.8893 97.1414 85.4086ZM108.598 23.3925C112.951 25.9029 114.644 36.0275 111.909 49.304C111.734 50.1512 111.538 51.014 111.324 51.8885C105.931 50.644 100.074 49.718 93.9425 49.1427C90.3704 44.0559 86.6688 39.4314 82.9532 35.4278C83.9522 34.4668 84.9497 33.5504 85.9431 32.6857C95.5406 24.3334 104.511 21.0357 108.598 23.3925ZM79 63.2228C85.4111 63.2228 90.6086 68.4201 90.6086 74.8314C90.6086 81.2425 85.4111 86.44 79 86.44C72.5889 86.44 67.3914 81.2425 67.3914 74.8314C67.3914 68.4201 72.5889 63.2228 79 63.2228Z" fill="#00D8FF"/>
</g>
<defs>
<filter id="filter0_d_8_2" x="0" y="0" width="158" height="158" filterUnits="userSpaceOnUse" color-interpolation-filters="sRGB">
<feFlood flood-opacity="0" result="BackgroundImageFix"/>
<feColorMatrix in="SourceAlpha" type="matrix" values="0 0 0 0 0 0 0 0 0 0 0 0 0 0 0 0 0 0 127 0" result="hardAlpha"/>
<feOffset dy="4"/>
<feGaussianBlur stdDeviation="2"/>
<feComposite in2="hardAlpha" operator="out"/>
<feColorMatrix type="matrix" values="0 0 0 0 0 0 0 0 0 0 0 0 0 0 0 0 0 0 0.25 0"/>
<feBlend mode="normal" in2="BackgroundImageFix" result="effect1_dropShadow_8_2"/>
<feBlend mode="normal" in="SourceGraphic" in2="effect1_dropShadow_8_2" result="shape"/>
</filter>
</defs>
</svg>
