<svg width="83" height="84" viewBox="0 0 83 84" fill="none" xmlns="http://www.w3.org/2000/svg">
<g filter="url(#filter0_d_9_1936)">
<rect x="4" y="0.5" width="75" height="75" rx="30" fill="white"/>
<path d="M59.221 29.3684C58.6505 29.172 58.0593 28.9862 57.4505 28.8104C57.5506 28.4021 57.6424 27.999 57.7241 27.6028C59.0643 21.0971 58.188 15.8561 55.1957 14.1305C52.3265 12.4759 47.6341 14.2011 42.895 18.3254C42.4392 18.722 41.9823 19.1419 41.5255 19.582C41.2211 19.2908 40.9172 19.0094 40.6141 18.7403C35.6474 14.3303 30.669 12.4719 27.6797 14.2025C24.8132 15.8619 23.9643 20.789 25.1707 26.9545C25.2872 27.55 25.4234 28.1581 25.5774 28.7765C24.8728 28.9765 24.1926 29.1897 23.5418 29.4165C17.7188 31.4467 14 34.6284 14 37.9287C14 41.3372 17.9921 44.7561 24.0572 46.8291C24.5358 46.9927 25.0325 47.1474 25.5443 47.2942C25.3781 47.963 25.2336 48.6183 25.1123 49.2575C23.962 55.316 24.8604 60.1266 27.7192 61.7756C30.6721 63.4784 35.628 61.7281 40.4538 57.5098C40.8352 57.1763 41.218 56.8227 41.6014 56.4521C42.0985 56.9307 42.5947 57.3837 43.0883 57.8086C47.7626 61.831 52.3792 63.4552 55.2355 61.8017C58.1855 60.0939 59.1442 54.9261 57.8995 48.6387C57.8044 48.1585 57.6938 47.6679 57.5696 47.1686C57.9176 47.0657 58.2593 46.9595 58.5924 46.8491C64.8976 44.76 69 41.3827 69 37.9287C69 34.6164 65.1613 31.4133 59.221 29.3684ZM57.8535 44.6188C57.5527 44.7184 57.2442 44.8146 56.9297 44.9079C56.2336 42.7043 55.2942 40.3611 54.1446 37.9401C55.2416 35.5768 56.1448 33.2636 56.8213 31.0743C57.384 31.2371 57.93 31.4088 58.4562 31.59C63.5458 33.3421 66.6504 35.9326 66.6504 37.9287C66.6504 40.0548 63.2976 42.8149 57.8535 44.6188ZM55.5946 49.095C56.1449 51.8752 56.2236 54.3889 55.859 56.3539C55.5314 58.1196 54.8726 59.2968 54.0581 59.7683C52.3248 60.7716 48.6182 59.4675 44.6206 56.0275C44.1624 55.6332 43.7008 55.2121 43.2377 54.7665C44.7875 53.0715 46.3363 51.1011 47.848 48.9128C50.5068 48.6768 53.0188 48.2911 55.2968 47.7645C55.409 48.2171 55.5087 48.661 55.5946 49.095ZM32.7507 59.5949C31.0573 60.193 29.7085 60.2101 28.8932 59.74C27.1583 58.7394 26.4371 54.8769 27.4209 49.6957C27.5336 49.1023 27.6677 48.4928 27.8223 47.8698C30.0754 48.368 32.5689 48.7265 35.2342 48.9425C36.756 51.0839 38.3496 53.0521 39.9555 54.7756C39.6047 55.1143 39.2552 55.4368 38.9076 55.7407C36.7737 57.6059 34.6353 58.9293 32.7507 59.5949ZM24.8171 44.6058C22.1352 43.6892 19.9205 42.4978 18.4023 41.1978C17.0382 40.0296 16.3495 38.8698 16.3495 37.9287C16.3495 35.9259 19.3353 33.3715 24.3152 31.6352C24.9194 31.4245 25.5519 31.226 26.2083 31.0395C26.8966 33.2783 27.7994 35.6189 28.8889 37.9858C27.7853 40.3879 26.8696 42.7659 26.1747 45.0309C25.7067 44.8964 25.2533 44.7548 24.8171 44.6058ZM27.4765 26.5032C26.4429 21.2208 27.1294 17.2359 28.8568 16.236C30.6968 15.1707 34.7656 16.6895 39.054 20.4973C39.3281 20.7407 39.6033 20.9954 39.8793 21.259C38.2813 22.9749 36.7023 24.9283 35.1939 27.0571C32.6072 27.2968 30.1312 27.6819 27.8546 28.1977C27.7115 27.6219 27.5847 27.0563 27.4765 26.5032ZM51.201 32.3614C50.6568 31.4214 50.0981 30.5036 49.5285 29.6109C51.2834 29.8327 52.9647 30.1272 54.5436 30.4875C54.0696 32.0067 53.4788 33.5952 52.7833 35.2235C52.2844 34.2763 51.7567 33.3213 51.201 32.3614ZM41.5262 22.9381C42.61 24.1122 43.6953 25.4231 44.7628 26.8454C43.6871 26.7946 42.598 26.7682 41.5 26.7682C40.4123 26.7682 39.3313 26.794 38.2623 26.8439C39.3308 25.4349 40.4256 24.1258 41.5262 22.9381ZM31.7895 32.3777C31.2458 33.3204 30.7279 34.2702 30.2369 35.2218C29.5527 33.5991 28.9673 32.0034 28.4892 30.4627C30.0584 30.1115 31.7318 29.8244 33.4755 29.6067C32.8979 30.5077 32.3346 31.4325 31.7895 32.3777ZM33.5257 46.4182C31.7242 46.2172 30.0256 45.9449 28.4568 45.6034C28.9426 44.0351 29.5408 42.4054 30.2395 40.7478C30.7319 41.6987 31.2518 42.6489 31.7988 43.5936C32.3559 44.5561 32.9332 45.4988 33.5257 46.4182ZM41.5912 53.0848C40.4776 51.8833 39.3669 50.5542 38.2821 49.1246C39.3352 49.1659 40.4088 49.1871 41.5 49.1871C42.621 49.1871 43.7293 49.1618 44.8201 49.1133C43.749 50.5686 42.6676 51.8998 41.5912 53.0848ZM52.8057 40.6633C53.5408 42.3388 54.1605 43.96 54.6526 45.5016C53.0579 45.8654 51.3361 46.1584 49.5221 46.3761C50.093 45.4713 50.6566 44.5377 51.2104 43.5775C51.7707 42.6059 52.3027 41.6329 52.8057 40.6633ZM49.1752 42.4036C48.3155 43.8944 47.4328 45.3174 46.5367 46.6607C44.9046 46.7774 43.2185 46.8375 41.5 46.8375C39.7884 46.8375 38.1236 46.7843 36.5204 46.6803C35.5882 45.3194 34.6863 43.8921 33.832 42.4165C32.98 40.9448 32.196 39.4608 31.4855 37.9851C32.1959 36.5059 32.978 35.0202 33.8251 33.5512L33.8249 33.5515C34.6743 32.0786 35.5682 30.6583 36.4918 29.3059C38.1275 29.1823 39.8048 29.1177 41.4999 29.1177C43.2027 29.1177 44.8822 29.1827 46.5174 29.3075C47.4269 30.65 48.3148 32.0657 49.1675 33.5388C50.0299 35.0284 50.8221 36.5042 51.5385 37.9517C50.8242 39.424 50.0338 40.9147 49.1752 42.4036ZM54.0221 16.1661C55.8639 17.2282 56.5801 21.5117 55.4229 27.1286C55.3491 27.487 55.266 27.8521 55.1757 28.2221C52.8939 27.6956 50.4161 27.3038 47.8218 27.0604C46.3106 24.9083 44.7445 22.9517 43.1725 21.2579C43.5951 20.8513 44.0172 20.4636 44.4375 20.0978C48.4979 16.5641 52.293 15.169 54.0221 16.1661ZM41.5 33.0174C44.2124 33.0174 46.4113 35.2162 46.4113 37.9287C46.4113 40.6411 44.2124 42.84 41.5 42.84C38.7876 42.84 36.5887 40.6411 36.5887 37.9287C36.5887 35.2162 38.7876 33.0174 41.5 33.0174Z" fill="#00D8FF"/>
</g>
<defs>
<filter id="filter0_d_9_1936" x="0" y="0.5" width="83" height="83" filterUnits="userSpaceOnUse" color-interpolation-filters="sRGB">
<feFlood flood-opacity="0" result="BackgroundImageFix"/>
<feColorMatrix in="SourceAlpha" type="matrix" values="0 0 0 0 0 0 0 0 0 0 0 0 0 0 0 0 0 0 127 0" result="hardAlpha"/>
<feOffset dy="4"/>
<feGaussianBlur stdDeviation="2"/>
<feComposite in2="hardAlpha" operator="out"/>
<feColorMatrix type="matrix" values="0 0 0 0 0 0 0 0 0 0 0 0 0 0 0 0 0 0 0.25 0"/>
<feBlend mode="normal" in2="BackgroundImageFix" result="effect1_dropShadow_9_1936"/>
<feBlend mode="normal" in="SourceGraphic" in2="effect1_dropShadow_9_1936" result="shape"/>
</filter>
</defs>
</svg>
