<svg width="158" height="158" viewBox="0 0 158 158" fill="none" xmlns="http://www.w3.org/2000/svg">
<g filter="url(#filter0_d_8_17)">
<rect x="4" width="150" height="150" rx="30" fill="white"/>
<path fill-rule="evenodd" clip-rule="evenodd" d="M14 74.998C14 100.727 28.9504 122.961 50.6327 133.496L19.6268 48.5461C16.0232 56.6267 14 65.5727 14 74.998ZM122.879 71.7194C122.879 63.6835 119.991 58.1219 117.521 53.7952C114.226 48.4366 111.134 43.9026 111.134 38.5481C111.134 32.572 115.664 27.0102 122.05 27.0102C122.339 27.0102 122.611 27.0467 122.891 27.063C111.329 16.4676 95.9196 10 78.9988 10C56.2887 10 36.3128 21.6516 24.6896 39.2956C26.2172 39.3443 27.6553 39.3728 28.8741 39.3728C35.6709 39.3728 46.1972 38.5481 46.1972 38.5481C49.6991 38.3409 50.1135 43.4923 46.6115 43.9026C46.6115 43.9026 43.0892 44.3169 39.1728 44.5241L62.8417 114.93L77.069 72.2679L66.945 44.5241C63.443 44.3169 60.1238 43.9026 60.1238 43.9026C56.6218 43.6954 57.0322 38.3409 60.5382 38.5481C60.5382 38.5481 71.2717 39.3728 77.6581 39.3728C84.4549 39.3728 94.9811 38.5481 94.9811 38.5481C98.4872 38.3409 98.8975 43.4923 95.3955 43.9026C95.3955 43.9026 91.8692 44.3169 87.9569 44.5241L111.447 114.393L117.935 92.7313C120.738 83.7366 122.879 77.2811 122.879 71.7194ZM136.037 43.8145C136.318 45.8864 136.476 48.1047 136.476 50.4976C136.476 57.0912 135.241 64.5054 131.532 73.7804L111.678 131.181C131.004 119.916 144 98.9768 144 74.9992C144 63.6969 141.111 53.0732 136.037 43.8145ZM80.1403 80.684L60.6357 137.354C66.4615 139.068 72.6204 140.002 78.9988 140.002C86.5674 140.002 93.8274 138.694 100.584 136.318C100.413 136.037 100.25 135.745 100.12 135.424L80.1403 80.684Z" fill="#00759D"/>
</g>
<defs>
<filter id="filter0_d_8_17" x="0" y="0" width="158" height="158" filterUnits="userSpaceOnUse" color-interpolation-filters="sRGB">
<feFlood flood-opacity="0" result="BackgroundImageFix"/>
<feColorMatrix in="SourceAlpha" type="matrix" values="0 0 0 0 0 0 0 0 0 0 0 0 0 0 0 0 0 0 127 0" result="hardAlpha"/>
<feOffset dy="4"/>
<feGaussianBlur stdDeviation="2"/>
<feComposite in2="hardAlpha" operator="out"/>
<feColorMatrix type="matrix" values="0 0 0 0 0 0 0 0 0 0 0 0 0 0 0 0 0 0 0.25 0"/>
<feBlend mode="normal" in2="BackgroundImageFix" result="effect1_dropShadow_8_17"/>
<feBlend mode="normal" in="SourceGraphic" in2="effect1_dropShadow_8_17" result="shape"/>
</filter>
</defs>
</svg>
