<svg width="440" height="394" viewBox="0 0 440 394" fill="none"
    xmlns="http://www.w3.org/2000/svg">
    <path class="color"
        d="M396.501 393.648C420.822 357.025 435.588 313.555 439.155 268.081C442.722 222.607 434.949 176.917 416.703 136.102C398.456 95.2869 370.452 60.9508 335.813 36.9201C301.174 12.8894 261.259 0.10813 220.518 0.000682835C179.776 -0.106765 139.809 12.4638 105.069 36.3116C70.3288 60.1593 42.1814 94.3473 23.7635 135.066C5.34561 175.784 -2.61927 221.433 0.756506 266.925C4.13228 312.417 18.7161 355.965 42.8826 392.716L191.084 270.371C187.138 264.371 184.757 257.262 184.206 249.835C183.655 242.407 184.955 234.955 187.962 228.307C190.969 221.659 195.565 216.078 201.236 212.184C206.908 208.291 213.433 206.239 220.085 206.256C226.736 206.274 233.253 208.36 238.908 212.284C244.563 216.207 249.135 221.813 252.114 228.476C255.093 235.14 256.362 242.599 255.78 250.023C255.197 257.447 252.786 264.544 248.816 270.524L396.501 393.648Z"
        fill="url(#paint0_linear_4_5437)" />
    <defs>
        <linearGradient id="paint0_linear_4_5437" x1="317.833" y1="64.364" x2="-0.000672496"
            y2="64.5441" gradientUnits="userSpaceOnUse">
            <stop stop-color="#03A9F4" />
            <stop offset="0.510417" stop-color="#FFC107" />
            <stop offset="1" stop-color="#F44336" />
        </linearGradient>
    </defs>

</svg>