<svg width="1229" height="1089" viewBox="0 0 1229 1089" fill="none" xmlns="http://www.w3.org/2000/svg">
<g clip-path="url(#clip0_1_2)">
<path id="path1" d="M853.378 1077.58L1044.74 1077.58C1082.21 1077.58 1112.59 1047.42 1112.59 1010.22" stroke="#4484AB" stroke-width="12" stroke-linecap="round" stroke-linejoin="round"/>
<path id="path1" d="M1219.59 729.634V857.345C1219.59 882.355 1199.19 902.627 1174.04 902.627C1148.89 902.627 1128.5 882.355 1128.5 857.345V837.579" stroke="white" stroke-width="12" stroke-linecap="round" stroke-linejoin="round"/>
<path id="path3" d="M370.789 150.99C375.666 150.99 379.618 154.942 379.618 159.815C379.618 164.69 375.666 168.64 370.789 168.64V150.99ZM278.949 350.211C281.337 354.462 279.825 359.841 275.573 362.228C271.323 364.614 265.941 363.103 263.553 358.853L278.949 350.211ZM450.623 407.447C455.5 407.447 459.452 411.398 459.452 416.272C459.452 421.146 455.5 425.096 450.623 425.096V407.447ZM297.444 399.488C293.599 396.493 292.91 390.947 295.906 387.103C298.903 383.257 304.449 382.569 308.297 385.564L297.444 399.488ZM370.789 168.64C311.913 168.64 262.847 221.152 262.847 287.655H245.189C245.189 212.95 300.683 150.99 370.789 150.99V168.64ZM262.847 287.655C262.847 310.653 268.757 332.069 278.949 350.211L263.553 358.853C251.883 338.082 245.189 313.69 245.189 287.655H262.847ZM450.623 425.096H371.071V407.447H450.623V425.096ZM371.071 425.096C343.527 425.096 318.087 415.56 297.444 399.488L308.297 385.564C326.038 399.379 347.706 407.447 371.071 407.447V425.096Z" fill="#1DC9FF" stroke="#1DC9FF" stroke-width="8"/>
<path id="path1" d="M832.068 653.321C856.175 653.321 875.717 633.886 875.717 609.912C875.717 585.939 856.175 566.504 832.068 566.504C807.962 566.504 788.421 585.939 788.421 609.912V772.124" stroke="white" stroke-width="12" stroke-linecap="round" stroke-linejoin="round"/>
<path id="path1" d="M52.4771 648.67C28.3708 648.67 8.82903 629.428 8.82903 605.691C8.82903 581.951 28.3708 562.709 52.4771 562.709C76.5831 562.709 96.1251 581.951 96.1251 605.691V781.23" stroke="#4484AB" stroke-width="12" stroke-linecap="round" stroke-linejoin="round"/>
<path id="path1" fill-rule="evenodd" clip-rule="evenodd" d="M845.352 947.015C845.352 987.453 877.796 1020.23 917.818 1020.23H992.266C1032.29 1020.23 1064.73 987.453 1064.73 947.015C1064.73 906.577 1032.29 873.796 992.266 873.796H917.818C877.796 873.796 845.352 906.577 845.352 947.015Z" stroke="#FDB314" stroke-width="12" stroke-linecap="round" stroke-linejoin="round"/>
<path id="path1" d="M1148.99 605.2H1085.22C1039.11 605.2 1001.73 567.493 1001.73 520.98" stroke="#4484AB" stroke-width="12" stroke-linecap="round" stroke-linejoin="round"/>
<path id="path1" d="M1219.59 322.187C1219.59 297.883 1200.05 278.18 1175.94 278.18C1151.83 278.18 1132.29 297.883 1132.29 322.187" stroke="#34C69F" stroke-width="12" stroke-linecap="round" stroke-linejoin="round"/>
<path id="path1" d="M431.646 1027.89C431.646 1002.71 452.037 982.297 477.191 982.297C502.345 982.297 522.736 1002.71 522.736 1027.89V1079.42" stroke="#34C69F" stroke-width="12" stroke-linecap="round" stroke-linejoin="round"/>
<path id="path1" fill-rule="evenodd" clip-rule="evenodd" d="M451.382 751.638C468.152 751.638 481.747 765.226 481.747 781.988C481.747 798.749 468.152 812.338 451.382 812.338C434.612 812.338 421.019 798.749 421.019 781.988C421.019 765.226 434.612 751.638 451.382 751.638Z" stroke="#34C69F" stroke-width="12" stroke-linecap="round" stroke-linejoin="round"/>
<path id="path1" fill-rule="evenodd" clip-rule="evenodd" d="M144.708 837.376C171.12 837.376 192.531 858.778 192.531 885.177C192.531 911.578 171.12 932.978 144.708 932.978C118.296 932.978 96.8848 911.578 96.8848 885.177C96.8848 858.778 118.296 837.376 144.708 837.376Z" stroke="#34C69F" stroke-width="12" stroke-linecap="round" stroke-linejoin="round"/>
<path id="path1" d="M254.398 766.054C230.291 766.054 210.749 746.521 210.749 722.425C210.749 698.331 230.291 678.798 254.398 678.798C278.503 678.798 298.045 698.331 298.045 722.425V766.054" stroke="#34C69F" stroke-width="12" stroke-linecap="round" stroke-linejoin="round"/>
<path id="path1" d="M1114.82 420.066C1114.82 394.504 1135.22 373.783 1160.38 373.783C1185.53 373.783 1205.92 394.504 1205.92 420.066C1205.92 445.627 1185.53 466.35 1160.38 466.35H1007.8" stroke="#34C69F" stroke-width="12" stroke-linecap="round" stroke-linejoin="round"/>
<path id="path1" d="M699.545 52.8315C699.545 77.1372 719.101 96.8398 743.224 96.8398C767.346 96.8398 786.903 77.1372 786.903 52.8315C786.903 28.5275 767.346 8.82495 743.224 8.82495H673.797" stroke="#34C69F" stroke-width="12" stroke-linecap="round" stroke-linejoin="round"/>
<path id="path1" d="M1142.65 528.566C1185.15 528.566 1219.59 563.557 1219.59 606.718C1219.59 649.879 1185.15 684.868 1142.65 684.868H940.999" stroke="#34C69F" stroke-width="12" stroke-linecap="round" stroke-linejoin="round"/>
<path id="path1" d="M575.114 579.403V403.648C575.114 351.115 618.106 308.529 671.14 308.529C724.174 308.529 767.166 351.115 767.166 403.648V445.173" stroke="#34C69F" stroke-width="12" stroke-linecap="round" stroke-linejoin="round"/>
<path id="path1" d="M382.304 281.973H540.047C600.08 281.973 648.748 233.057 648.748 172.715C648.748 112.375 600.08 63.4551 540.047 63.4551H492.592" stroke="#34C69F" stroke-width="12" stroke-linecap="round" stroke-linejoin="round"/>
<path id="path1" d="M832.068 722.048H874.716C903.356 722.048 926.576 743.958 926.576 770.986C926.576 798.015 903.356 819.925 874.716 819.925H789.422C760.779 819.925 737.561 798.015 737.561 770.986" stroke="#34C69F" stroke-width="12" stroke-linecap="round" stroke-linejoin="round"/>
<path id="path1" d="M517.423 926.15H415.187C350.491 926.15 298.045 873.496 298.045 808.545" stroke="#34C69F" stroke-width="12" stroke-linecap="round" stroke-linejoin="round"/>
<path id="path1" d="M778.552 136.294C778.552 180.712 814.114 216.722 857.98 216.722H997.932" stroke="#34C69F" stroke-width="12" stroke-linecap="round" stroke-linejoin="round"/>
<path id="path1" d="M38.8134 832.824C38.8134 825.757 38.8134 736.806 38.8134 693.215" stroke="#34C69F" stroke-width="12" stroke-linecap="round" stroke-linejoin="round"/>
<path id="path1" d="M831.309 511.874C831.309 506.037 831.309 432.555 831.309 396.544" stroke="#34C69F" stroke-width="12" stroke-linecap="round" stroke-linejoin="round"/>
<path id="path1" d="M714.409 198.512C714.409 196.131 714.409 166.162 714.409 151.47" stroke="#34C69F" stroke-width="12" stroke-linecap="round" stroke-linejoin="round"/>
<path id="path1" d="M145.087 781.23C203.989 781.23 251.74 828.277 251.74 886.315C251.74 944.353 203.989 991.402 145.087 991.402C86.1843 991.402 38.4338 944.353 38.4338 886.315" stroke="#FDB314" stroke-width="12" stroke-linecap="round" stroke-linejoin="round"/>
<path id="path1" d="M527.825 781.23C527.825 824.391 493.38 859.38 450.889 859.38C408.399 859.38 373.953 824.391 373.953 781.23C373.953 738.068 408.399 703.077 450.889 703.077H652.542" stroke="#FDB314" stroke-width="12" stroke-linecap="round" stroke-linejoin="round"/>
<path id="path1" fill-rule="evenodd" clip-rule="evenodd" d="M207.332 419.307C182.388 419.307 162.166 439.485 162.166 464.376V592.757C162.166 617.647 182.388 637.826 207.332 637.826C232.277 637.826 252.498 617.647 252.498 592.757V464.376C252.498 439.485 232.277 419.307 207.332 419.307Z" stroke="#FDB314" stroke-width="12" stroke-linecap="round" stroke-linejoin="round"/>
<path id="path1" d="M698.847 838.947V833.037C698.847 799.397 671.488 772.124 637.74 772.124C603.992 772.124 576.632 799.397 576.632 833.037V1018.5C576.632 1052.14 603.992 1079.42 637.74 1079.42C671.488 1079.42 698.847 1052.14 698.847 1018.5V1016.69" stroke="#FDB314" stroke-width="12" stroke-linecap="round" stroke-linejoin="round"/>
<path id="path1" d="M59.4986 357.849H55.8468C29.8797 357.849 8.82903 336.787 8.82903 310.806C8.82903 284.826 29.8795 263.764 55.8468 263.764H164.49C190.458 263.764 211.508 284.826 211.508 310.806C211.508 336.787 190.458 357.849 164.49 357.849H160.838" stroke="#FDB314" stroke-width="12" stroke-linecap="round" stroke-linejoin="round"/>
<path id="path4" d="M949.828 634.792C949.828 639.665 945.874 643.617 940.999 643.617C936.122 643.617 932.17 639.665 932.17 634.792H949.828ZM854.141 361.282C849.266 361.282 845.312 357.331 845.312 352.457C845.312 347.583 849.266 343.632 854.141 343.632V361.282ZM729.21 260.449C724.335 260.449 720.381 256.498 720.381 251.624C720.381 246.749 724.335 242.799 729.21 242.799V260.449ZM834.415 327.546C834.415 332.419 830.463 336.37 825.586 336.37C820.711 336.37 816.757 332.419 816.757 327.546H834.415ZM932.17 634.792V526.797H949.828V634.792H932.17ZM932.17 526.797C932.17 514.748 922.303 504.867 909.977 504.867V487.217C931.918 487.217 949.828 504.864 949.828 526.797H932.17ZM909.977 504.867C888.034 504.867 870.128 487.205 870.128 465.273H887.787C887.787 477.33 897.657 487.217 909.977 487.217V504.867ZM870.128 465.273V458.893H887.787V465.273H870.128ZM870.128 458.893C870.128 436.963 888.034 419.299 909.977 419.299V436.948C897.657 436.948 887.787 446.838 887.787 458.893H870.128ZM909.977 419.299C922.299 419.299 932.17 409.411 932.17 397.356H949.828C949.828 419.286 931.923 436.948 909.977 436.948V419.299ZM932.17 397.356V390.291H949.828V397.356H932.17ZM932.17 390.291C932.17 374.334 919.108 361.282 902.854 361.282V343.632C928.734 343.632 949.828 364.459 949.828 390.291H932.17ZM902.854 361.282H883.093V343.632H902.854V361.282ZM883.093 361.282H854.141V343.632H883.093V361.282ZM729.21 242.799H749.536V260.449H729.21V242.799ZM749.536 242.799C796.404 242.799 834.415 280.731 834.415 327.546H816.757C816.757 290.498 786.671 260.449 749.536 260.449V242.799Z" fill="#FDB314" stroke="#FDB314" stroke-width="12"/>
<path id="path1"  d="M1219.59 962.569C1189.4 962.569 1164.93 987.198 1164.93 1017.58C1164.93 1047.96 1189.4 1072.59 1219.59 1072.59" stroke="#DC462D" stroke-width="12" stroke-linecap="round" stroke-linejoin="round"/>
<path id="path2" d="M515.905 338.753C520.782 338.753 524.734 342.703 524.734 347.578C524.734 352.451 520.782 356.403 515.905 356.403V338.753ZM435.914 215.138C440.789 215.138 444.743 219.088 444.743 223.963C444.743 228.836 440.789 232.788 435.914 232.788V215.138ZM283.5 -5.18725e-05C288.377 -5.18725e-05 292.329 3.95177 292.329 8.82491C292.329 13.6981 288.377 17.6499 283.5 17.6499V-5.18725e-05ZM445.147 159.778C445.147 164.653 441.193 168.603 436.318 168.603C431.441 168.603 427.489 164.653 427.489 159.778H445.147ZM309.729 634.033C309.729 638.906 305.776 642.858 300.9 642.858C296.023 642.858 292.071 638.906 292.071 634.033H309.729ZM507.075 412.952C507.075 408.077 511.029 404.127 515.905 404.127C520.782 404.127 524.734 408.077 524.734 412.952H507.075ZM515.905 356.403H379.696V338.753H515.905V356.403ZM379.696 356.403C340.53 356.403 308.701 324.824 308.701 285.77H326.36C326.36 314.988 350.194 338.753 379.696 338.753V356.403ZM308.701 285.77C308.701 246.718 340.53 215.138 379.696 215.138V232.788C350.194 232.788 326.36 256.554 326.36 285.77H308.701ZM379.696 215.138H435.914V232.788H379.696V215.138ZM283.5 17.6499H275.381V-5.18725e-05H283.5V17.6499ZM275.381 17.6499C256.31 17.6499 240.833 33.1271 240.833 52.2278H223.175C223.175 23.3985 246.538 -5.18725e-05 275.381 -5.18725e-05V17.6499ZM240.833 52.2278C240.833 71.3392 256.312 86.8164 275.381 86.8164V104.466C246.538 104.466 223.175 81.066 223.175 52.2278H240.833ZM275.381 86.8164H372.226V104.466H275.381V86.8164ZM372.226 86.8164C412.508 86.8164 445.147 119.49 445.147 159.778H427.489C427.489 129.219 402.738 104.466 372.226 104.466V86.8164ZM292.071 634.033V585.255H309.729V634.033H292.071ZM292.071 585.255C292.071 520.978 344.145 468.856 408.402 468.856V486.506C353.915 486.506 309.729 530.707 309.729 585.255H292.071ZM408.402 468.856H451.22V486.506H408.402V468.856ZM451.22 468.856C482.059 468.856 507.075 443.835 507.075 412.952H524.734C524.734 453.564 491.83 486.506 451.22 486.506V468.856Z" fill="#DC462D" stroke="#DC462D" stroke-width="8"/>
<path id="path1" fill-rule="evenodd" clip-rule="evenodd" d="M534.882 129.466C559.199 129.466 578.91 148.999 578.91 173.094C578.91 197.188 559.199 216.722 534.882 216.722C510.567 216.722 490.855 197.188 490.855 173.094C490.855 148.999 510.567 129.466 534.882 129.466Z" stroke="#DC462D" stroke-width="12" stroke-linecap="round" stroke-linejoin="round"/>
<path id="path1" d="M267.68 1021.37C267.68 989.316 293.51 963.328 325.372 963.328C357.235 963.328 383.063 989.316 383.063 1021.37C383.063 1053.43 357.235 1079.42 325.372 1079.42H267.68" stroke="#DC462D" stroke-width="12" stroke-linecap="round" stroke-linejoin="round"/>
<path id="path1" d="M633.564 476.592V544.375C633.564 563.719 649.368 579.403 668.862 579.403C688.357 579.403 704.161 563.719 704.161 544.375V408.811C704.161 389.465 688.357 373.783 668.862 373.783C649.368 373.783 633.564 389.465 633.564 408.811V425.187" stroke="#DC462D" stroke-width="12" stroke-linecap="round" stroke-linejoin="round"/>
<path id="path1" d="M1129.25 784.324V768.935C1129.25 747.229 1111.6 729.634 1089.82 729.634C1068.05 729.634 1050.39 747.229 1050.39 768.935V781.681C1050.39 803.223 1032.86 820.684 1011.26 820.684C989.643 820.684 972.121 803.223 972.121 781.681V765.994" stroke="#DC462D" stroke-width="12" stroke-linecap="round" stroke-linejoin="round"/>
<path id="path1" d="M738.32 974.109C711.489 974.109 689.737 952.673 689.737 926.229C689.737 899.786 711.489 878.348 738.32 878.348C765.15 878.348 786.901 899.786 786.901 926.229V1080.18" stroke="#1DC9FF" stroke-width="12" stroke-linecap="round" stroke-linejoin="round"/>
<path id="path1" d="M449.863 548.293H412.526C387.449 548.293 367.121 568.677 367.121 593.819C367.121 618.961 387.449 639.344 412.526 639.344H487.201C512.278 639.344 532.606 618.961 532.606 593.819V589.774C532.606 566.866 514.082 548.293 491.234 548.293" stroke="#1DC9FF" stroke-width="12" stroke-linecap="round" stroke-linejoin="round"/>
<path id="path1" d="M572.078 639.344H646.752C696.905 639.344 737.561 680.108 737.561 730.392" stroke="#1DC9FF" stroke-width="12" stroke-linecap="round" stroke-linejoin="round"/>
<path id="path1" d="M1007.8 401.855V361.07C1007.8 319.901 974.398 286.527 933.189 286.527H874.956" stroke="#1DC9FF" stroke-width="12" stroke-linecap="round" stroke-linejoin="round"/>
<path id="path1" fill-rule="evenodd" clip-rule="evenodd" d="M831.689 104.452C831.689 135.025 856.498 159.815 887.103 159.815C917.705 159.815 942.518 135.025 942.518 104.452V64.1875C942.518 33.6143 917.705 8.82495 887.103 8.82495C856.498 8.82495 831.689 33.6143 831.689 64.1875V104.452Z" stroke="#1DC9FF" stroke-width="12" stroke-linecap="round" stroke-linejoin="round"/>
<style>
    #path1 {
      stroke-dasharray: 2000;
      stroke-dashoffset: 2000;
      animation: dash 5s linear forwards;
    }
    #path2 {
      stroke-dasharray: 2000;
      stroke-dashoffset: 2000;
      animation: dash 5s linear forwards, fill .2s linear forwards;
    }
    #path3 {
      stroke-dasharray: 2000;
      stroke-dashoffset: 2000;
      animation: dash 5s linear forwards, fill3 .2s linear forwards;
    }
    #path4 {
      stroke-dasharray: 2000;
      stroke-dashoffset: 2000;
      animation: dash 5s linear forwards, fill4 .2s linear forwards;
    }
    @keyframes dash {
      to {
        stroke-dashoffset: 0;
      }
    }
    @keyframes fill {
      from {
        fill: transparent;
      }
      to {
        fill: #DC462D;
      }
    }
    @keyframes fill3 {
      from {
        fill: transparent;
      }
      to {
        fill: #1DC9FF;
      }
    }
    @keyframes fill4 {
      from {
        fill: transparent;
      }
      to {
        fill: #FDB314;
      }
    }
</style>
</g>
<defs>
</defs>
</svg>
