<svg width="158" height="158" viewBox="0 0 158 158" fill="none" xmlns="http://www.w3.org/2000/svg">
<g filter="url(#filter0_d_4_5542)">
<rect x="4" width="150" height="150" rx="30" fill="white"/>
<g clip-path="url(#clip0_4_5542)">
<path d="M79 140C114.899 140 144 110.899 144 75C144 39.1015 114.899 10 79 10C43.1015 10 14 39.1015 14 75C14 110.899 43.1015 140 79 140Z" fill="#13AA52"/>
<path d="M96.3748 67.0578C92.2691 48.9378 82.5661 42.9799 81.5213 40.7036C80.3787 39.0977 79.2209 36.2412 79.2209 36.2412C79.2018 36.193 79.1714 36.1079 79.1358 36.0254C79.0178 37.6313 78.9568 38.2509 77.4385 39.8708C75.0873 41.7091 63.0242 51.8311 62.0429 72.4178C61.1275 91.6182 75.9125 103.059 77.912 104.518L78.1393 104.679V104.665C78.1519 104.762 78.774 109.235 79.2107 113.976H80.7773C81.1449 110.625 81.6959 107.297 82.4277 104.006L82.5547 103.924C83.4491 103.282 84.3018 102.585 85.1077 101.835L85.1991 101.753C89.4495 97.8262 97.0908 88.7439 97.0159 74.2637C97.0001 71.8482 96.7857 69.4381 96.3748 67.0578ZM79.0444 93.6773C79.0444 93.6773 79.0444 66.748 79.9331 66.7531C80.6263 66.7531 81.5238 101.489 81.5238 101.489C80.2898 101.34 79.0444 95.7721 79.0444 93.6773Z" fill="white"/>
</g>
</g>
<defs>
<filter id="filter0_d_4_5542" x="0" y="0" width="158" height="158" filterUnits="userSpaceOnUse" color-interpolation-filters="sRGB">
<feFlood flood-opacity="0" result="BackgroundImageFix"/>
<feColorMatrix in="SourceAlpha" type="matrix" values="0 0 0 0 0 0 0 0 0 0 0 0 0 0 0 0 0 0 127 0" result="hardAlpha"/>
<feOffset dy="4"/>
<feGaussianBlur stdDeviation="2"/>
<feComposite in2="hardAlpha" operator="out"/>
<feColorMatrix type="matrix" values="0 0 0 0 0 0 0 0 0 0 0 0 0 0 0 0 0 0 0.25 0"/>
<feBlend mode="normal" in2="BackgroundImageFix" result="effect1_dropShadow_4_5542"/>
<feBlend mode="normal" in="SourceGraphic" in2="effect1_dropShadow_4_5542" result="shape"/>
</filter>
<clipPath id="clip0_4_5542">
<rect width="130" height="130" fill="white" transform="translate(14 10)"/>
</clipPath>
</defs>
</svg>
