<svg width="158" height="158" viewBox="0 0 158 158" fill="none" xmlns="http://www.w3.org/2000/svg">
<g filter="url(#filter0_d_8_36)">
<rect x="4" width="150" height="150" rx="30" fill="white"/>
<path d="M50.5625 65.6562C54.3542 50.4896 63.8333 42.9062 79 42.9062C101.75 42.9062 104.594 59.9687 115.969 62.8125C123.552 64.7083 130.188 61.8646 135.875 54.2812C132.083 69.4479 122.604 77.0312 107.438 77.0312C84.6875 77.0312 81.8438 59.9687 70.4688 57.125C62.8854 55.2292 56.25 58.0729 50.5625 65.6562ZM22.125 99.7812C25.9167 84.6146 35.3958 77.0312 50.5625 77.0312C73.3125 77.0312 76.1562 94.0937 87.5312 96.9375C95.1146 98.8333 101.75 95.9896 107.438 88.4062C103.646 103.573 94.1667 111.156 79 111.156C56.25 111.156 53.4062 94.0937 42.0312 91.25C34.4479 89.3542 27.8125 92.1979 22.125 99.7812Z" fill="#44A8B3"/>
</g>
<defs>
<filter id="filter0_d_8_36" x="0" y="0" width="158" height="158" filterUnits="userSpaceOnUse" color-interpolation-filters="sRGB">
<feFlood flood-opacity="0" result="BackgroundImageFix"/>
<feColorMatrix in="SourceAlpha" type="matrix" values="0 0 0 0 0 0 0 0 0 0 0 0 0 0 0 0 0 0 127 0" result="hardAlpha"/>
<feOffset dy="4"/>
<feGaussianBlur stdDeviation="2"/>
<feComposite in2="hardAlpha" operator="out"/>
<feColorMatrix type="matrix" values="0 0 0 0 0 0 0 0 0 0 0 0 0 0 0 0 0 0 0.25 0"/>
<feBlend mode="normal" in2="BackgroundImageFix" result="effect1_dropShadow_8_36"/>
<feBlend mode="normal" in="SourceGraphic" in2="effect1_dropShadow_8_36" result="shape"/>
</filter>
</defs>
</svg>
